# xmcd CD database file
#
# Track frame offsets:
#	150
#	10860
#	25496
#	37212
#	50547
#	63996
#	80379
#	101229
#	111516
#	125001
#	139150
#	153318
#	164590
#	180346
#	192649
#
# Disc length: 2713 seconds
#
# Revision: 6
# Processed by: cddbd v1.5.2PL0 Copyright (c) Steve Scherf et al.
# Submitted via: CDex 1.51
#
DISCID=d90a970f
DTITLE=Various Artist - Gala der Weltstars [CD 1)
DYEAR=1997
DGENRE=Oldies
TTITLE0=Paul Anka - Diana
TTITLE1=Tony Christie - Amarillo
TTITLE2=Dean Martin - Gentle On My Mind
TTITLE3=Frank Sinatra - Begin The Beguine
TTITLE4=Tom Jones - I (Who Have Nothing)
TTITLE5=Nina Simone - My Baby Just Cares For Me
TTITLE6=Fats Domino - Jambalaya
TTITLE7=Neil Sedaka - Oh, Carol
TTITLE8=B.J.Thomas - Raindrops Keep Falling On My Head
TTITLE9=Engelbert - Red Roses For My Lady
TTITLE10=Nat King Cole - Route 66
TTITLE11=Perry Como - Catch A Falling Star
TTITLE12=Marilyn Monroe - Diamonds Are A Girl's Best Friend
TTITLE13=Henry Mancini and His Orchestra And Chorus - Moon River
TTITLE14=Fred Astaire - Lets Face The Music And Dance
EXTD=YEAR: 1997
EXTT0=
EXTT1=
EXTT2=
EXTT3=
EXTT4=
EXTT5=
EXTT6=
EXTT7=
EXTT8=
EXTT9=
EXTT10=
EXTT11=
EXTT12=
EXTT13=
EXTT14=
PLAYORDER=
